<svg xmlns="http://www.w3.org/2000/svg" viewBox="0 0 234.68 123.84"><defs><style>.cls-1{fill:#fff;}.cls-2{fill:#1f140f;}</style></defs><title>logo</title><g id="Layer_2" data-name="Layer 2"><g id="Capa_1" data-name="Capa 1"><rect class="cls-1" x="80.12" y="1.12" width="11.84" height="76.09"/><polygon class="cls-1" points="209.44 66.55 209.44 42.77 232.59 42.77 232.59 32.31 209.44 32.31 209.44 11.58 233.78 11.58 233.78 1.12 197.59 1.12 197.59 77.22 234.68 77.22 234.68 66.55 209.44 66.55"/><polygon class="cls-2" points="177.91 35.67 177.93 35.67 177.89 35.65 177.91 35.67"/><polygon class="cls-2" points="177.91 35.67 177.93 35.67 177.89 35.65 177.91 35.67"/><path class="cls-1" d="M163.94,42.56l1.81,1,1.47.78c6.82,3.58,11,6.1,11,12.28,0,10-9,11.07-12.84,11.07-6.24,0-12.18-2.58-14.44-3.69l-4.05-2V76.08l2.15.54A74.23,74.23,0,0,0,165,78.34c12.42,0,25.69-5.9,25.69-22.45,0-11.32-5.77-15.84-12.73-20.19l0,0-8.57-4.77c-8.25-4.33-11.11-6.12-11.11-11.91,0-5.18,4.1-8.53,10.44-8.53,5.32,0,10.27,2,14,3.72l4,1.86V2.23l-2.19-.52A61,61,0,0,0,170.18,0C155.8,0,146.5,8,146.5,20.31c0,12.78,8.87,17.59,17.44,22.24"/><polygon class="cls-1" points="141.16 66.55 115.91 66.55 115.91 42.77 139.06 42.77 139.06 32.31 115.91 32.31 115.91 11.58 140.27 11.58 140.27 1.12 104.07 1.12 104.07 77.22 141.16 77.22 141.16 66.55"/><path class="cls-1" d="M44.88,77.28a33.34,33.34,0,0,0,5.56-2.6V37.8H44.88Z"/><path class="cls-1" d="M53.81,72.44a34.26,34.26,0,0,0,5.35-5.06V37.8H53.81Z"/><path class="cls-1" d="M35.32,79.17a34,34,0,0,0,6.18-.89V37.8H35.32Z"/><path class="cls-1" d="M62.53,62.69a34.87,34.87,0,0,0,4.93-17.93v-7H62.53Z"/><rect class="cls-1" x="26.44" width="5.5" height="35.01"/><rect class="cls-1" x="17.72" width="5.35" height="35.01"/><rect class="cls-1" x="8.79" width="5.56" height="35.01"/><path class="cls-1" d="M6,0H4.85A4.27,4.27,0,0,0,.64,4.31V35H6Z"/><path class="cls-1" d="M0,38.52v6.25c0,18.41,14.15,33.45,31.94,34.4V37.8H0Zm16.84,3.86a5.51,5.51,0,1,1-5.4,5.51,5.46,5.46,0,0,1,5.4-5.51m0,14.71a5.51,5.51,0,1,1-5.4,5.51,5.45,5.45,0,0,1,5.4-5.51"/><path class="cls-1" d="M63.25,0H35.32V35H67.46V4.31A4.27,4.27,0,0,0,63.25,0M50.55,30a5.51,5.51,0,1,1,5.39-5.51A5.45,5.45,0,0,1,50.55,30m0-14.51A5.45,5.45,0,0,1,45.15,10a5.39,5.39,0,1,1,10.79,0,5.45,5.45,0,0,1-5.39,5.51"/><path class="cls-1" d="M95.78,111.78a3,3,0,0,0-2.84,1.55v-1.4h-1.4v8.84h1.4v-5.36A2.33,2.33,0,0,1,95.41,113c1.42,0,2.08.69,2.08,2.25v5.52h1.4v-5.42c0-2.57-1.28-3.56-3.11-3.56"/><rect class="cls-1" x="101.34" y="111.93" width="1.4" height="8.83"/><path class="cls-1" d="M87.65,116c0,3-1.15,3.74-3.08,3.74s-2.91-1-2.91-3.52v-7.5H80.2v7.67c0,2.94,1.57,4.56,4.34,4.56,3.11,0,4.58-1.81,4.58-4.75v-7.49H87.65Z"/><path class="cls-1" d="M102,108.23a.93.93,0,1,0,.93.93.94.94,0,0,0-.93-.93"/><polygon class="cls-1" points="108.42 119.35 105.8 111.93 104.28 111.93 107.49 120.77 109.28 120.77 112.45 111.93 111 111.93 108.42 119.35"/><polygon class="cls-1" points="202.12 119.35 199.5 111.93 197.98 111.93 201.19 120.77 202.98 120.77 206.16 111.93 204.71 111.93 202.12 119.35"/><polygon class="cls-1" points="186.44 118.67 180.56 108.69 178.66 108.69 178.66 120.77 180.06 120.77 180.06 110.41 186.16 120.77 187.84 120.77 187.84 108.69 186.44 108.69 186.44 118.67"/><path class="cls-1" d="M193.59,111.78c-1.71,0-3.31.74-3.5,2.75h1.4c.13-1.08.81-1.59,2-1.59s1.89.59,1.89,2v.64h-1.27c-2.26,0-4.43.69-4.43,2.74,0,1.81,1.3,2.6,2.94,2.6a3.19,3.19,0,0,0,2.75-1.26v1.11h1.4v-5.83c0-2.47-1.54-3.16-3.23-3.16m1.83,5.9c0,1.37-1.13,2.13-2.62,2.13-1.23,0-1.67-.58-1.67-1.49,0-1.3,1.3-1.74,3.08-1.74h1.22Z"/><polygon class="cls-1" points="149.51 118.27 146.81 111.93 145.3 111.93 148.77 119.86 147.09 123.84 148.51 123.84 153.39 111.93 151.96 111.93 149.51 118.27"/><path class="cls-1" d="M169.21,110.5v1.44h-1.27v1.18h1.27v7.65h1.4v-7.65h2.16v-1.18h-2.16v-1.59c0-.9.37-1.52,1.28-1.52a2.77,2.77,0,0,1,1,.19v-1.18a2.85,2.85,0,0,0-1-.17c-1.76,0-2.63,1-2.63,2.84"/><path class="cls-1" d="M162.72,111.78a4.27,4.27,0,0,0-4.34,4.51v.14a4.34,4.34,0,1,0,8.68,0v-.13a4.25,4.25,0,0,0-4.34-4.49m2.89,4.65c0,2-1.12,3.33-2.89,3.33s-2.89-1.32-2.89-3.33v-.14c0-2,1.12-3.35,2.89-3.35s2.89,1.32,2.89,3.36Z"/><path class="cls-1" d="M231.46,111.78c-1.71,0-3.31.74-3.5,2.75h1.4c.13-1.08.81-1.59,2-1.59s1.89.59,1.89,2v.64H232c-2.27,0-4.43.69-4.43,2.74,0,1.81,1.3,2.6,2.94,2.6a3.19,3.19,0,0,0,2.76-1.26v1.11h1.4v-5.83c0-2.47-1.54-3.16-3.23-3.16m1.83,5.9c0,1.37-1.13,2.13-2.62,2.13-1.23,0-1.67-.58-1.67-1.49,0-1.3,1.3-1.74,3.08-1.74h1.22Z"/><path class="cls-1" d="M223.78,113.52v-1.59h-1.4v8.84h1.4v-4.85c0-2.18,1.13-2.74,2.91-2.82v-1.32a3.08,3.08,0,0,0-2.91,1.74"/><path class="cls-1" d="M217.77,113.52v-1.59h-1.4v8.84h1.4v-4.85c0-2.18,1.13-2.74,2.91-2.82v-1.32a3.08,3.08,0,0,0-2.91,1.74"/><path class="cls-1" d="M210.72,111.78c-1.71,0-3.31.74-3.5,2.75h1.4c.14-1.08.81-1.59,2-1.59s1.89.59,1.89,2v.64h-1.27c-2.26,0-4.43.69-4.43,2.74,0,1.81,1.3,2.6,2.94,2.6a3.19,3.19,0,0,0,2.75-1.26v1.11h1.4v-5.83c0-2.47-1.54-3.16-3.23-3.16m1.83,5.9c0,1.37-1.13,2.13-2.62,2.13-1.23,0-1.67-.58-1.67-1.49,0-1.3,1.3-1.74,3.08-1.74h1.22Z"/><path class="cls-1" d="M142.34,118.42v-5.31h2.06v-1.18h-2.06v-2h-1.4v2h-1.27v1.18h1.27v5.44a2.14,2.14,0,0,0,2.38,2.33,3.37,3.37,0,0,0,1.2-.18v-1.18a2.9,2.9,0,0,1-1.08.19c-.71,0-1.1-.42-1.1-1.29"/><rect class="cls-1" x="136.7" y="111.93" width="1.4" height="8.83"/><path class="cls-1" d="M124.37,113.52v-1.59H123v8.84h1.4v-4.85c0-2.18,1.13-2.74,2.91-2.82v-1.32a3.08,3.08,0,0,0-2.91,1.74"/><path class="cls-1" d="M117.19,111.78c-2.43,0-4.14,1.86-4.14,4.53v.14a4.15,4.15,0,0,0,4.27,4.48c2,0,3.46-.93,3.77-2.7h-1.4c-.19,1-1,1.54-2.35,1.54-1.81,0-2.77-1.12-2.84-3.13h6.66v-.45c0-3.16-1.92-4.39-4-4.39m-2.64,3.72a2.65,2.65,0,0,1,2.64-2.55c1.45,0,2.4.73,2.54,2.55Z"/><path class="cls-1" d="M131.77,115.61c-1.62-.29-2.06-.61-2.06-1.4s.66-1.27,1.67-1.27,1.66.42,1.86,1.39h1.35c-.24-1.91-1.6-2.55-3.19-2.55-1.39,0-3,.84-3,2.48s.78,2.18,3.07,2.6c1.37.25,2.06.56,2.06,1.49s-.59,1.4-1.93,1.4-2-.66-2.08-1.71h-1.37c.08,1.81,1.35,2.87,3.46,2.87s3.24-1.08,3.24-2.68c0-1.88-1.28-2.28-3.11-2.62"/><path class="cls-1" d="M137.38,108.23a.93.93,0,1,0,.93.93.94.94,0,0,0-.93-.93"/><path class="cls-1" d="M230.47,95.25v-.17a5.56,5.56,0,1,0-11.1,0v.17a5.56,5.56,0,1,0,11.1,0m-9.25,0V95.1c0-2.59,1.43-4.28,3.7-4.28s3.7,1.69,3.7,4.3v.15c0,2.55-1.43,4.26-3.7,4.26s-3.7-1.69-3.7-4.26"/><path class="cls-1" d="M217.85,95.08a5.56,5.56,0,1,0-11.1,0v.17a5.56,5.56,0,1,0,11.1,0Zm-1.86.19c0,2.55-1.43,4.26-3.7,4.26s-3.7-1.69-3.7-4.26V95.1c0-2.59,1.43-4.28,3.7-4.28s3.7,1.69,3.7,4.3Z"/><path class="cls-1" d="M109,99.53c-1.82,0-2.53-.84-2.66-2.18h-1.75c.11,2.31,1.73,3.67,4.43,3.67s4.15-1.38,4.15-3.43c0-2.4-1.64-2.92-4-3.35-2.08-.37-2.64-.78-2.64-1.79s.84-1.62,2.14-1.62,2.12.54,2.38,1.77h1.73c-.3-2.44-2.05-3.26-4.08-3.26-1.77,0-3.82,1.08-3.82,3.17s1,2.79,3.93,3.33c1.75.32,2.64.71,2.64,1.9s-.76,1.79-2.46,1.79"/><rect class="cls-1" x="232.87" y="84.12" width="1.81" height="16.7"/><path class="cls-1" d="M116.33,84.79A1.19,1.19,0,1,0,117.51,86a1.2,1.2,0,0,0-1.19-1.19"/><path class="cls-1" d="M142.51,94.95c0-4-2.46-5.62-5.08-5.62-3.11,0-5.29,2.37-5.29,5.79v.17c0,3.48,2.27,5.72,5.47,5.72,2.55,0,4.43-1.19,4.82-3.46h-1.79c-.24,1.32-1.25,2-3,2-2.31,0-3.54-1.43-3.63-4h8.51Zm-8.45-.86c.3-2,1.53-3.27,3.37-3.27s3.07.93,3.24,3.27Z"/><rect class="cls-1" x="115.46" y="89.52" width="1.79" height="11.3"/><path class="cls-1" d="M87.48,92.72a3.16,3.16,0,0,0,2.33-3.26v-.09c0-3-2.09-4-5-4H80.2v15.45h5.29c3.09,0,5.08-1.4,5.08-4.32v-.09c0-2-.84-3.16-3.09-3.7M82,86.84H84.8c2.16,0,3.18.71,3.18,2.46v.09c0,1.9-.86,2.72-3.13,2.72H82Zm6.7,9.64c0,1.88-1,2.87-3.29,2.87H82V93.58h3.16c2.48,0,3.54.91,3.54,2.81Z"/><path class="cls-1" d="M180.56,96.46c0-2.92-1.81-4-5.25-4.5-3.16-.48-3.72-1.25-3.72-2.77s1.1-2.51,3.22-2.51,3.26.8,3.63,2.74h1.68c-.3-2.74-2.22-4.25-5.31-4.25-2.92,0-5,1.81-5,4.19,0,2.75,1.92,3.76,5.16,4.26,2.94.47,3.74,1.21,3.74,3s-1.53,2.92-3.52,2.92c-3.11,0-3.85-1.56-4.08-3.39h-1.81c.28,2.64,1.77,4.9,5.9,4.9,3.07,0,5.33-2,5.33-4.56"/><path class="cls-1" d="M162.52,97.58c0-2.4-1.64-2.92-4-3.35-2.08-.37-2.64-.78-2.64-1.79s.84-1.62,2.14-1.62,2.12.54,2.38,1.77h1.73c-.3-2.44-2.05-3.26-4.08-3.26-1.77,0-3.82,1.08-3.82,3.17s1,2.79,3.93,3.33c1.75.32,2.64.71,2.64,1.9s-.76,1.79-2.46,1.79-2.53-.84-2.66-2.18h-1.75c.11,2.31,1.73,3.67,4.43,3.67s4.15-1.38,4.15-3.43"/><path class="cls-1" d="M129.89,100.82V93.89c0-3.28-1.64-4.56-4-4.56a3.89,3.89,0,0,0-3.63,2V89.52H120.5v11.3h1.79V94a3,3,0,0,1,3.16-3.09c1.82,0,2.66.89,2.66,2.87v7.07Z"/><path class="cls-1" d="M152.58,97.58c0-2.4-1.64-2.92-4-3.35-2.08-.37-2.64-.78-2.64-1.79s.84-1.62,2.14-1.62,2.12.54,2.38,1.77h1.73c-.3-2.44-2.05-3.26-4.08-3.26-1.77,0-3.82,1.08-3.82,3.17s1,2.79,3.93,3.33c1.75.32,2.64.71,2.64,1.9s-.76,1.79-2.46,1.79-2.53-.84-2.66-2.18H144c.11,2.31,1.73,3.67,4.43,3.67s4.15-1.38,4.15-3.43"/><path class="cls-1" d="M202.71,93.76v7.07h1.79V93.89c0-3.28-1.64-4.56-4-4.56a3.88,3.88,0,0,0-3.63,2V84.12H195.1v16.7h1.79V94A3,3,0,0,1,200,90.88c1.82,0,2.66.89,2.66,2.87"/><path class="cls-1" d="M102.28,100.82V89.52h-1.79v6.85a3,3,0,0,1-3.11,3.09c-1.77,0-2.62-.89-2.62-2.87V89.52H93v7.15c0,3.11,1.68,4.34,3.93,4.34a3.86,3.86,0,0,0,3.59-2v1.79Z"/><path class="cls-1" d="M192.83,96.76h-1.66a3.05,3.05,0,0,1-3.24,2.77c-2.18,0-3.69-1.47-3.69-4.24v-.17c0-2.66,1.58-4.3,3.63-4.3A2.82,2.82,0,0,1,191,93.28h1.77c-.35-2.87-2.55-4-4.91-4a5.49,5.49,0,0,0-5.49,5.79v.17a5.37,5.37,0,0,0,5.53,5.72,4.71,4.71,0,0,0,4.93-4.25"/></g></g></svg>